STARTFONT 2.1
FONT -FontForge-Helv Cyrillic-Normal-R-Normal--8-60-100-100-P-83-WinRoman-0
SIZE 6 100 100
FONTBOUNDINGBOX 17 10 0 -1
COMMENT "Generated by fontforge, http://fontforge.sourceforge.net"
COMMENT "Copyright (C) Steepler Ltd., 1990-92."
STARTPROPERTIES 34
FOUNDRY "FontForge"
FAMILY_NAME "Helv Cyrillic"
WEIGHT_NAME "Normal"
SLANT "R"
SETWIDTH_NAME "Normal"
ADD_STYLE_NAME ""
PIXEL_SIZE 8
POINT_SIZE 60
RESOLUTION_X 100
RESOLUTION_Y 100
SPACING "P"
AVERAGE_WIDTH 83
CHARSET_REGISTRY "WinRoman"
CHARSET_ENCODING "0"
FONTNAME_REGISTRY ""
CHARSET_COLLECTIONS "WinRoman"
FONT_NAME "HelvCyrillic"
FACE_NAME "Helv Cyrillic"
COPYRIGHT "Copyright (C) Steepler Ltd., 1990-92."
FONT_VERSION "001.000"
FONT_ASCENT 6
FONT_DESCENT 2
UNDERLINE_POSITION -1
UNDERLINE_THICKNESS 1
X_HEIGHT 4
CAP_HEIGHT 6
RAW_ASCENT 800
RAW_DESCENT 200
NORM_SPACE 4
RELATIVE_WEIGHT 40
RELATIVE_SETWIDTH 50
FIGURE_WIDTH 9
AVG_LOWERCASE_WIDTH 83
AVG_UPPERCASE_WIDTH 106
ENDPROPERTIES
CHARS 224
STARTCHAR space
ENCODING 32
SWIDTH 562 0
DWIDTH 4 0
BBX 1 1 3 -1
BITMAP
00
ENDCHAR
STARTCHAR exclam
ENCODING 33
SWIDTH 562 0
DWIDTH 4 0
BBX 2 7 1 0
BITMAP
C0
C0
C0
C0
C0
00
C0
ENDCHAR
STARTCHAR quotedbl
ENCODING 34
SWIDTH 750 0
DWIDTH 7 0
BBX 5 2 1 5
BITMAP
D8
D8
ENDCHAR
STARTCHAR numbersign
ENCODING 35
SWIDTH 1562 0
DWIDTH 10 0
BBX 8 7 1 0
BITMAP
66
66
FF
66
FF
66
66
ENDCHAR
STARTCHAR dollar
ENCODING 36
SWIDTH 1125 0
DWIDTH 9 0
BBX 8 9 0 -1
BITMAP
18
7E
C3
C0
7E
03
C3
7E
18
ENDCHAR
STARTCHAR percent
ENCODING 37
SWIDTH 1688 0
DWIDTH 14 0
BBX 14 7 0 0
BITMAP
7860
CCC0
7980
0300
0678
0CCC
1878
ENDCHAR
STARTCHAR ampersand
ENCODING 38
SWIDTH 1312 0
DWIDTH 12 0
BBX 10 7 1 0
BITMAP
3C00
6600
6600
3C00
C6C0
C380
7EC0
ENDCHAR
STARTCHAR quotesingle
ENCODING 39
SWIDTH 562 0
DWIDTH 4 0
BBX 2 2 1 5
BITMAP
C0
C0
ENDCHAR
STARTCHAR parenleft
ENCODING 40
SWIDTH 688 0
DWIDTH 5 0
BBX 4 8 1 -1
BITMAP
30
60
C0
C0
C0
C0
60
30
ENDCHAR
STARTCHAR parenright
ENCODING 41
SWIDTH 688 0
DWIDTH 5 0
BBX 4 8 0 -1
BITMAP
C0
60
30
30
30
30
60
C0
ENDCHAR
STARTCHAR asterisk
ENCODING 42
SWIDTH 1000 0
DWIDTH 10 0
BBX 8 5 1 1
BITMAP
66
3C
FF
3C
66
ENDCHAR
STARTCHAR plus
ENCODING 43
SWIDTH 1188 0
DWIDTH 10 0
BBX 8 5 1 1
BITMAP
18
18
FF
18
18
ENDCHAR
STARTCHAR comma
ENCODING 44
SWIDTH 562 0
DWIDTH 4 0
BBX 2 3 1 -1
BITMAP
C0
C0
40
ENDCHAR
STARTCHAR hyphen
ENCODING 45
SWIDTH 625 0
DWIDTH 5 0
BBX 5 1 0 3
BITMAP
F8
ENDCHAR
STARTCHAR period
ENCODING 46
SWIDTH 562 0
DWIDTH 4 0
BBX 2 2 1 0
BITMAP
C0
C0
ENDCHAR
STARTCHAR slash
ENCODING 47
SWIDTH 625 0
DWIDTH 5 0
BBX 5 8 0 -1
BITMAP
18
18
30
30
60
60
C0
C0
ENDCHAR
STARTCHAR zero
ENCODING 48
SWIDTH 1125 0
DWIDTH 9 0
BBX 7 7 1 0
BITMAP
7C
C6
C6
C6
C6
C6
7C
ENDCHAR
STARTCHAR one
ENCODING 49
SWIDTH 1125 0
DWIDTH 9 0
BBX 4 7 2 0
BITMAP
30
F0
30
30
30
30
30
ENDCHAR
STARTCHAR two
ENCODING 50
SWIDTH 1125 0
DWIDTH 9 0
BBX 7 7 1 0
BITMAP
7C
C6
06
0C
38
60
FE
ENDCHAR
STARTCHAR three
ENCODING 51
SWIDTH 1125 0
DWIDTH 9 0
BBX 7 7 1 0
BITMAP
7C
C6
06
3C
06
C6
7C
ENDCHAR
STARTCHAR four
ENCODING 52
SWIDTH 1125 0
DWIDTH 9 0
BBX 7 7 1 0
BITMAP
1C
3C
6C
CC
FE
0C
0C
ENDCHAR
STARTCHAR five
ENCODING 53
SWIDTH 1125 0
DWIDTH 9 0
BBX 7 7 1 0
BITMAP
FE
C0
C0
FC
06
06
FC
ENDCHAR
STARTCHAR six
ENCODING 54
SWIDTH 1125 0
DWIDTH 9 0
BBX 7 7 1 0
BITMAP
3C
60
C0
FC
C6
C6
7C
ENDCHAR
STARTCHAR seven
ENCODING 55
SWIDTH 1125 0
DWIDTH 9 0
BBX 7 7 1 0
BITMAP
FE
06
0C
18
30
30
30
ENDCHAR
STARTCHAR eight
ENCODING 56
SWIDTH 1125 0
DWIDTH 9 0
BBX 7 7 1 0
BITMAP
7C
C6
C6
7C
C6
C6
7C
ENDCHAR
STARTCHAR nine
ENCODING 57
SWIDTH 1125 0
DWIDTH 9 0
BBX 7 7 1 0
BITMAP
7C
C6
C6
7E
06
0C
78
ENDCHAR
STARTCHAR colon
ENCODING 58
SWIDTH 562 0
DWIDTH 4 0
BBX 2 6 1 0
BITMAP
C0
C0
00
00
C0
C0
ENDCHAR
STARTCHAR semicolon
ENCODING 59
SWIDTH 562 0
DWIDTH 4 0
BBX 2 7 1 -1
BITMAP
C0
C0
00
00
C0
C0
40
ENDCHAR
STARTCHAR less
ENCODING 60
SWIDTH 1188 0
DWIDTH 9 0
BBX 7 5 1 1
BITMAP
0E
38
E0
38
0E
ENDCHAR
STARTCHAR equal
ENCODING 61
SWIDTH 1188 0
DWIDTH 10 0
BBX 8 3 1 2
BITMAP
FF
00
FF
ENDCHAR
STARTCHAR greater
ENCODING 62
SWIDTH 1188 0
DWIDTH 9 0
BBX 7 5 1 1
BITMAP
E0
38
0E
38
E0
ENDCHAR
STARTCHAR question
ENCODING 63
SWIDTH 1062 0
DWIDTH 8 0
BBX 6 7 1 0
BITMAP
78
CC
0C
18
30
00
30
ENDCHAR
STARTCHAR at
ENCODING 64
SWIDTH 2000 0
DWIDTH 16 0
BBX 14 8 1 -1
BITMAP
1FE0
6018
C7CC
CCCC
CCCC
C7B8
6000
1FF0
ENDCHAR
STARTCHAR A
ENCODING 65
SWIDTH 1312 0
DWIDTH 10 0
BBX 10 7 0 0
BITMAP
0C00
1E00
3300
6180
7F80
C0C0
C0C0
ENDCHAR
STARTCHAR B
ENCODING 66
SWIDTH 1312 0
DWIDTH 11 0
BBX 9 7 1 0
BITMAP
FF00
C180
C180
FF00
C180
C180
FF00
ENDCHAR
STARTCHAR C
ENCODING 67
SWIDTH 1438 0
DWIDTH 11 0
BBX 9 7 1 0
BITMAP
1E00
6180
C000
C000
C000
6180
1E00
ENDCHAR
STARTCHAR D
ENCODING 68
SWIDTH 1438 0
DWIDTH 11 0
BBX 9 7 1 0
BITMAP
FC00
C300
C180
C180
C180
C300
FC00
ENDCHAR
STARTCHAR E
ENCODING 69
SWIDTH 1250 0
DWIDTH 10 0
BBX 8 7 1 0
BITMAP
FF
C0
C0
FE
C0
C0
FF
ENDCHAR
STARTCHAR F
ENCODING 70
SWIDTH 1188 0
DWIDTH 9 0
BBX 8 7 1 0
BITMAP
FF
C0
C0
FE
C0
C0
C0
ENDCHAR
STARTCHAR G
ENCODING 71
SWIDTH 1438 0
DWIDTH 12 0
BBX 10 7 1 0
BITMAP
1F00
60C0
C000
C7C0
C0C0
61C0
1EC0
ENDCHAR
STARTCHAR H
ENCODING 72
SWIDTH 1438 0
DWIDTH 12 0
BBX 10 7 1 0
BITMAP
C0C0
C0C0
C0C0
FFC0
C0C0
C0C0
C0C0
ENDCHAR
STARTCHAR I
ENCODING 73
SWIDTH 500 0
DWIDTH 4 0
BBX 2 7 1 0
BITMAP
C0
C0
C0
C0
C0
C0
C0
ENDCHAR
STARTCHAR J
ENCODING 74
SWIDTH 1000 0
DWIDTH 8 0
BBX 6 7 1 0
BITMAP
0C
0C
0C
0C
0C
CC
78
ENDCHAR
STARTCHAR K
ENCODING 75
SWIDTH 1250 0
DWIDTH 10 0
BBX 9 7 1 0
BITMAP
C300
C600
CC00
DC00
E600
C300
C180
ENDCHAR
STARTCHAR L
ENCODING 76
SWIDTH 1062 0
DWIDTH 10 0
BBX 9 7 1 0
BITMAP
C000
C000
C000
C000
C000
C000
FF80
ENDCHAR
STARTCHAR M
ENCODING 77
SWIDTH 1688 0
DWIDTH 14 0
BBX 12 7 1 0
BITMAP
C030
E070
F0F0
D9B0
CF30
C630
C030
ENDCHAR
STARTCHAR N
ENCODING 78
SWIDTH 1438 0
DWIDTH 12 0
BBX 10 7 1 0
BITMAP
E0C0
F0C0
D8C0
CCC0
C6C0
C3C0
C1C0
ENDCHAR
STARTCHAR O
ENCODING 79
SWIDTH 1562 0
DWIDTH 12 0
BBX 10 7 1 0
BITMAP
1E00
6180
C0C0
C0C0
C0C0
6180
1E00
ENDCHAR
STARTCHAR P
ENCODING 80
SWIDTH 1250 0
DWIDTH 10 0
BBX 9 7 1 0
BITMAP
FE00
C180
C180
FE00
C000
C000
C000
ENDCHAR
STARTCHAR Q
ENCODING 81
SWIDTH 1562 0
DWIDTH 12 0
BBX 11 7 1 0
BITMAP
1E00
6180
C0C0
C0C0
C6C0
6180
1E60
ENDCHAR
STARTCHAR R
ENCODING 82
SWIDTH 1312 0
DWIDTH 11 0
BBX 10 7 1 0
BITMAP
FE00
C180
C180
FE00
C180
C180
C0C0
ENDCHAR
STARTCHAR S
ENCODING 83
SWIDTH 1312 0
DWIDTH 10 0
BBX 8 7 1 0
BITMAP
7E
C3
C0
7E
03
C3
7E
ENDCHAR
STARTCHAR T
ENCODING 84
SWIDTH 1125 0
DWIDTH 8 0
BBX 8 7 0 0
BITMAP
FF
18
18
18
18
18
18
ENDCHAR
STARTCHAR U
ENCODING 85
SWIDTH 1438 0
DWIDTH 11 0
BBX 9 7 1 0
BITMAP
C180
C180
C180
C180
C180
C180
7F00
ENDCHAR
STARTCHAR V
ENCODING 86
SWIDTH 1312 0
DWIDTH 10 0
BBX 10 7 0 0
BITMAP
C0C0
C0C0
6180
6180
3300
1E00
0C00
ENDCHAR
STARTCHAR W
ENCODING 87
SWIDTH 1750 0
DWIDTH 14 0
BBX 14 7 0 0
BITMAP
C30C
C30C
6798
6798
3CF0
1860
1860
ENDCHAR
STARTCHAR X
ENCODING 88
SWIDTH 1188 0
DWIDTH 10 0
BBX 8 7 1 0
BITMAP
C3
66
3C
18
3C
66
C3
ENDCHAR
STARTCHAR Y
ENCODING 89
SWIDTH 1188 0
DWIDTH 10 0
BBX 10 7 0 0
BITMAP
C0C0
6180
3300
1E00
0C00
0C00
0C00
ENDCHAR
STARTCHAR Z
ENCODING 90
SWIDTH 1188 0
DWIDTH 10 0
BBX 8 7 1 0
BITMAP
FF
06
0C
18
30
60
FF
ENDCHAR
STARTCHAR bracketleft
ENCODING 91
SWIDTH 688 0
DWIDTH 5 0
BBX 4 8 1 -1
BITMAP
F0
C0
C0
C0
C0
C0
C0
F0
ENDCHAR
STARTCHAR backslash
ENCODING 92
SWIDTH 625 0
DWIDTH 5 0
BBX 5 8 0 -1
BITMAP
C0
C0
60
60
30
30
18
18
ENDCHAR
STARTCHAR bracketright
ENCODING 93
SWIDTH 688 0
DWIDTH 5 0
BBX 4 8 0 -1
BITMAP
F0
30
30
30
30
30
30
F0
ENDCHAR
STARTCHAR asciicircum
ENCODING 94
SWIDTH 1000 0
DWIDTH 8 0
BBX 6 3 1 5
BITMAP
30
78
CC
ENDCHAR
STARTCHAR underscore
ENCODING 95
SWIDTH 1125 0
DWIDTH 8 0
BBX 8 1 0 -1
BITMAP
FF
ENDCHAR
STARTCHAR grave
ENCODING 96
SWIDTH 1000 0
DWIDTH 8 0
BBX 3 2 3 6
BITMAP
C0
60
ENDCHAR
STARTCHAR a
ENCODING 97
SWIDTH 1062 0
DWIDTH 9 0
BBX 8 5 1 0
BITMAP
7C
06
7E
C6
7B
ENDCHAR
STARTCHAR b
ENCODING 98
SWIDTH 1188 0
DWIDTH 9 0
BBX 7 7 1 0
BITMAP
C0
C0
FC
C6
C6
C6
FC
ENDCHAR
STARTCHAR c
ENCODING 99
SWIDTH 1062 0
DWIDTH 8 0
BBX 7 5 1 0
BITMAP
7C
C6
C0
C6
7C
ENDCHAR
STARTCHAR d
ENCODING 100
SWIDTH 1188 0
DWIDTH 9 0
BBX 7 7 1 0
BITMAP
06
06
7E
C6
C6
C6
7E
ENDCHAR
STARTCHAR e
ENCODING 101
SWIDTH 1125 0
DWIDTH 9 0
BBX 7 5 1 0
BITMAP
7C
C6
FE
C0
7C
ENDCHAR
STARTCHAR f
ENCODING 102
SWIDTH 562 0
DWIDTH 5 0
BBX 5 7 0 0
BITMAP
38
60
F8
60
60
60
60
ENDCHAR
STARTCHAR g
ENCODING 103
SWIDTH 1188 0
DWIDTH 9 0
BBX 7 6 1 -1
BITMAP
7E
C6
C6
7E
06
FC
ENDCHAR
STARTCHAR h
ENCODING 104
SWIDTH 1125 0
DWIDTH 9 0
BBX 7 7 1 0
BITMAP
C0
C0
FC
C6
C6
C6
C6
ENDCHAR
STARTCHAR i
ENCODING 105
SWIDTH 438 0
DWIDTH 4 0
BBX 2 7 1 0
BITMAP
C0
00
C0
C0
C0
C0
C0
ENDCHAR
STARTCHAR j
ENCODING 106
SWIDTH 438 0
DWIDTH 4 0
BBX 3 8 0 -1
BITMAP
60
00
60
60
60
60
60
C0
ENDCHAR
STARTCHAR k
ENCODING 107
SWIDTH 1062 0
DWIDTH 8 0
BBX 7 7 1 0
BITMAP
C0
C0
CC
D8
F8
CC
C6
ENDCHAR
STARTCHAR l
ENCODING 108
SWIDTH 438 0
DWIDTH 4 0
BBX 2 7 1 0
BITMAP
C0
C0
C0
C0
C0
C0
C0
ENDCHAR
STARTCHAR m
ENCODING 109
SWIDTH 1688 0
DWIDTH 14 0
BBX 12 5 1 0
BITMAP
FBE0
C630
C630
C630
C630
ENDCHAR
STARTCHAR n
ENCODING 110
SWIDTH 1125 0
DWIDTH 9 0
BBX 7 5 1 0
BITMAP
FC
C6
C6
C6
C6
ENDCHAR
STARTCHAR o
ENCODING 111
SWIDTH 1125 0
DWIDTH 9 0
BBX 7 5 1 0
BITMAP
7C
C6
C6
C6
7C
ENDCHAR
STARTCHAR p
ENCODING 112
SWIDTH 1188 0
DWIDTH 9 0
BBX 7 6 1 -1
BITMAP
FC
C6
C6
C6
FC
C0
ENDCHAR
STARTCHAR q
ENCODING 113
SWIDTH 1188 0
DWIDTH 9 0
BBX 7 6 1 -1
BITMAP
7E
C6
C6
C6
7E
06
ENDCHAR
STARTCHAR r
ENCODING 114
SWIDTH 688 0
DWIDTH 5 0
BBX 4 5 1 0
BITMAP
F0
C0
C0
C0
C0
ENDCHAR
STARTCHAR s
ENCODING 115
SWIDTH 1000 0
DWIDTH 7 0
BBX 5 5 1 0
BITMAP
78
C0
70
18
F0
ENDCHAR
STARTCHAR t
ENCODING 116
SWIDTH 562 0
DWIDTH 5 0
BBX 5 6 0 0
BITMAP
60
F8
60
60
60
38
ENDCHAR
STARTCHAR u
ENCODING 117
SWIDTH 1125 0
DWIDTH 9 0
BBX 7 5 1 0
BITMAP
C6
C6
C6
C6
7E
ENDCHAR
STARTCHAR v
ENCODING 118
SWIDTH 938 0
DWIDTH 8 0
BBX 8 5 0 0
BITMAP
C3
C3
66
3C
18
ENDCHAR
STARTCHAR w
ENCODING 119
SWIDTH 1438 0
DWIDTH 12 0
BBX 12 5 0 0
BITMAP
C630
C630
6F60
79E0
30C0
ENDCHAR
STARTCHAR x
ENCODING 120
SWIDTH 938 0
DWIDTH 8 0
BBX 6 5 1 0
BITMAP
CC
78
30
78
CC
ENDCHAR
STARTCHAR y
ENCODING 121
SWIDTH 938 0
DWIDTH 8 0
BBX 8 6 0 -1
BITMAP
C3
C3
66
3C
18
F0
ENDCHAR
STARTCHAR z
ENCODING 122
SWIDTH 938 0
DWIDTH 8 0
BBX 6 5 1 0
BITMAP
FC
18
30
60
FC
ENDCHAR
STARTCHAR braceleft
ENCODING 123
SWIDTH 688 0
DWIDTH 6 0
BBX 6 7 0 0
BITMAP
1C
30
30
E0
30
30
1C
ENDCHAR
STARTCHAR bar
ENCODING 124
SWIDTH 438 0
DWIDTH 4 0
BBX 2 9 1 -1
BITMAP
C0
C0
C0
C0
C0
C0
C0
C0
C0
ENDCHAR
STARTCHAR braceright
ENCODING 125
SWIDTH 688 0
DWIDTH 6 0
BBX 6 7 0 0
BITMAP
E0
30
30
1C
30
30
E0
ENDCHAR
STARTCHAR asciitilde
ENCODING 126
SWIDTH 1000 0
DWIDTH 8 0
BBX 8 2 0 4
BITMAP
7B
DE
ENDCHAR
STARTCHAR uni007F
ENCODING 127
SWIDTH 688 0
DWIDTH 5 0
BBX 3 7 1 0
BITMAP
E0
E0
E0
E0
E0
E0
E0
ENDCHAR
STARTCHAR Euro
ENCODING 128
SWIDTH 688 0
DWIDTH 5 0
BBX 3 7 1 0
BITMAP
E0
E0
E0
E0
E0
E0
E0
ENDCHAR
STARTCHAR NameMe.129
ENCODING 129
SWIDTH 688 0
DWIDTH 5 0
BBX 3 7 1 0
BITMAP
E0
E0
E0
E0
E0
E0
E0
ENDCHAR
STARTCHAR quotesinglbase
ENCODING 130
SWIDTH 688 0
DWIDTH 5 0
BBX 3 7 1 0
BITMAP
E0
E0
E0
E0
E0
E0
E0
ENDCHAR
STARTCHAR florin
ENCODING 131
SWIDTH 688 0
DWIDTH 5 0
BBX 3 7 1 0
BITMAP
E0
E0
E0
E0
E0
E0
E0
ENDCHAR
STARTCHAR quotedblbase
ENCODING 132
SWIDTH 688 0
DWIDTH 5 0
BBX 3 7 1 0
BITMAP
E0
E0
E0
E0
E0
E0
E0
ENDCHAR
STARTCHAR ellipsis
ENCODING 133
SWIDTH 688 0
DWIDTH 5 0
BBX 3 7 1 0
BITMAP
E0
E0
E0
E0
E0
E0
E0
ENDCHAR
STARTCHAR dagger
ENCODING 134
SWIDTH 688 0
DWIDTH 5 0
BBX 3 7 1 0
BITMAP
E0
E0
E0
E0
E0
E0
E0
ENDCHAR
STARTCHAR daggerdbl
ENCODING 135
SWIDTH 688 0
DWIDTH 5 0
BBX 3 7 1 0
BITMAP
E0
E0
E0
E0
E0
E0
E0
ENDCHAR
STARTCHAR circumflex
ENCODING 136
SWIDTH 688 0
DWIDTH 5 0
BBX 3 7 1 0
BITMAP
E0
E0
E0
E0
E0
E0
E0
ENDCHAR
STARTCHAR perthousand
ENCODING 137
SWIDTH 688 0
DWIDTH 5 0
BBX 3 7 1 0
BITMAP
E0
E0
E0
E0
E0
E0
E0
ENDCHAR
STARTCHAR Scaron
ENCODING 138
SWIDTH 688 0
DWIDTH 5 0
BBX 3 7 1 0
BITMAP
E0
E0
E0
E0
E0
E0
E0
ENDCHAR
STARTCHAR guilsinglleft
ENCODING 139
SWIDTH 688 0
DWIDTH 5 0
BBX 3 7 1 0
BITMAP
E0
E0
E0
E0
E0
E0
E0
ENDCHAR
STARTCHAR OE
ENCODING 140
SWIDTH 688 0
DWIDTH 5 0
BBX 3 7 1 0
BITMAP
E0
E0
E0
E0
E0
E0
E0
ENDCHAR
STARTCHAR NameMe.141
ENCODING 141
SWIDTH 688 0
DWIDTH 5 0
BBX 3 7 1 0
BITMAP
E0
E0
E0
E0
E0
E0
E0
ENDCHAR
STARTCHAR Zcaron
ENCODING 142
SWIDTH 688 0
DWIDTH 5 0
BBX 3 7 1 0
BITMAP
E0
E0
E0
E0
E0
E0
E0
ENDCHAR
STARTCHAR NameMe.143
ENCODING 143
SWIDTH 688 0
DWIDTH 5 0
BBX 3 7 1 0
BITMAP
E0
E0
E0
E0
E0
E0
E0
ENDCHAR
STARTCHAR NameMe.144
ENCODING 144
SWIDTH 688 0
DWIDTH 5 0
BBX 3 7 1 0
BITMAP
E0
E0
E0
E0
E0
E0
E0
ENDCHAR
STARTCHAR quoteleft
ENCODING 145
SWIDTH 562 0
DWIDTH 4 0
BBX 2 3 1 4
BITMAP
80
C0
C0
ENDCHAR
STARTCHAR quoteright
ENCODING 146
SWIDTH 562 0
DWIDTH 4 0
BBX 2 3 1 4
BITMAP
C0
C0
40
ENDCHAR
STARTCHAR quotedblleft
ENCODING 147
SWIDTH 688 0
DWIDTH 5 0
BBX 3 7 1 0
BITMAP
E0
E0
E0
E0
E0
E0
E0
ENDCHAR
STARTCHAR quotedblright
ENCODING 148
SWIDTH 688 0
DWIDTH 5 0
BBX 3 7 1 0
BITMAP
E0
E0
E0
E0
E0
E0
E0
ENDCHAR
STARTCHAR bullet
ENCODING 149
SWIDTH 688 0
DWIDTH 5 0
BBX 3 7 1 0
BITMAP
E0
E0
E0
E0
E0
E0
E0
ENDCHAR
STARTCHAR endash
ENCODING 150
SWIDTH 688 0
DWIDTH 5 0
BBX 3 7 1 0
BITMAP
E0
E0
E0
E0
E0
E0
E0
ENDCHAR
STARTCHAR emdash
ENCODING 151
SWIDTH 688 0
DWIDTH 5 0
BBX 3 7 1 0
BITMAP
E0
E0
E0
E0
E0
E0
E0
ENDCHAR
STARTCHAR tilde
ENCODING 152
SWIDTH 688 0
DWIDTH 5 0
BBX 3 7 1 0
BITMAP
E0
E0
E0
E0
E0
E0
E0
ENDCHAR
STARTCHAR trademark
ENCODING 153
SWIDTH 688 0
DWIDTH 5 0
BBX 3 7 1 0
BITMAP
E0
E0
E0
E0
E0
E0
E0
ENDCHAR
STARTCHAR scaron
ENCODING 154
SWIDTH 688 0
DWIDTH 5 0
BBX 3 7 1 0
BITMAP
E0
E0
E0
E0
E0
E0
E0
ENDCHAR
STARTCHAR guilsinglright
ENCODING 155
SWIDTH 688 0
DWIDTH 5 0
BBX 3 7 1 0
BITMAP
E0
E0
E0
E0
E0
E0
E0
ENDCHAR
STARTCHAR oe
ENCODING 156
SWIDTH 688 0
DWIDTH 5 0
BBX 3 7 1 0
BITMAP
E0
E0
E0
E0
E0
E0
E0
ENDCHAR
STARTCHAR NameMe.157
ENCODING 157
SWIDTH 688 0
DWIDTH 5 0
BBX 3 7 1 0
BITMAP
E0
E0
E0
E0
E0
E0
E0
ENDCHAR
STARTCHAR zcaron
ENCODING 158
SWIDTH 688 0
DWIDTH 5 0
BBX 3 7 1 0
BITMAP
E0
E0
E0
E0
E0
E0
E0
ENDCHAR
STARTCHAR Ydieresis
ENCODING 159
SWIDTH 688 0
DWIDTH 5 0
BBX 3 7 1 0
BITMAP
E0
E0
E0
E0
E0
E0
E0
ENDCHAR
STARTCHAR uni00A0
ENCODING 160
SWIDTH 562 0
DWIDTH 4 0
BBX 1 1 3 -1
BITMAP
00
ENDCHAR
STARTCHAR exclamdown
ENCODING 161
SWIDTH 562 0
DWIDTH 4 0
BBX 2 7 1 0
BITMAP
C0
00
C0
C0
C0
C0
C0
ENDCHAR
STARTCHAR cent
ENCODING 162
SWIDTH 1125 0
DWIDTH 9 0
BBX 7 7 1 -1
BITMAP
02
7C
CE
D0
E6
7C
80
ENDCHAR
STARTCHAR sterling
ENCODING 163
SWIDTH 1125 0
DWIDTH 9 0
BBX 7 7 1 0
BITMAP
7C
C6
C0
F8
60
60
FE
ENDCHAR
STARTCHAR currency
ENCODING 164
SWIDTH 1188 0
DWIDTH 9 0
BBX 7 5 1 2
BITMAP
C6
7C
C6
7C
C6
ENDCHAR
STARTCHAR yen
ENCODING 165
SWIDTH 1188 0
DWIDTH 9 0
BBX 8 7 0 0
BITMAP
C3
66
FF
18
FF
18
18
ENDCHAR
STARTCHAR brokenbar
ENCODING 166
SWIDTH 438 0
DWIDTH 4 0
BBX 2 9 1 -1
BITMAP
C0
C0
C0
C0
00
C0
C0
C0
C0
ENDCHAR
STARTCHAR section
ENCODING 167
SWIDTH 1000 0
DWIDTH 8 0
BBX 6 7 1 0
BITMAP
7C
C0
78
CC
78
0C
F8
ENDCHAR
STARTCHAR dieresis
ENCODING 168
SWIDTH 1000 0
DWIDTH 8 0
BBX 6 1 1 6
BITMAP
CC
ENDCHAR
STARTCHAR copyright
ENCODING 169
SWIDTH 1500 0
DWIDTH 15 0
BBX 13 8 1 0
BITMAP
1FC0
6030
C798
CC18
CC18
C798
6030
1FC0
ENDCHAR
STARTCHAR ordfeminine
ENCODING 170
SWIDTH 625 0
DWIDTH 7 0
BBX 5 6 1 2
BITMAP
70
18
D8
78
00
F8
ENDCHAR
STARTCHAR guillemotleft
ENCODING 171
SWIDTH 875 0
DWIDTH 7 0
BBX 7 3 0 1
BITMAP
66
CC
66
ENDCHAR
STARTCHAR logicalnot
ENCODING 172
SWIDTH 1188 0
DWIDTH 7 0
BBX 5 2 1 2
BITMAP
F8
18
ENDCHAR
STARTCHAR uni00AD
ENCODING 173
SWIDTH 625 0
DWIDTH 5 0
BBX 5 1 0 3
BITMAP
F8
ENDCHAR
STARTCHAR registered
ENCODING 174
SWIDTH 1500 0
DWIDTH 15 0
BBX 13 8 1 0
BITMAP
1FC0
6030
CF98
CCD8
CF98
CCD8
6030
1FC0
ENDCHAR
STARTCHAR macron
ENCODING 175
SWIDTH 1000 0
DWIDTH 8 0
BBX 8 1 0 8
BITMAP
FF
ENDCHAR
STARTCHAR degree
ENCODING 176
SWIDTH 688 0
DWIDTH 8 0
BBX 6 3 1 4
BITMAP
78
CC
78
ENDCHAR
STARTCHAR plusminus
ENCODING 177
SWIDTH 1188 0
DWIDTH 8 0
BBX 6 5 1 0
BITMAP
30
FC
30
00
FC
ENDCHAR
STARTCHAR uni00B2
ENCODING 178
SWIDTH 625 0
DWIDTH 4 0
BBX 4 5 0 3
BITMAP
E0
30
60
C0
F0
ENDCHAR
STARTCHAR uni00B3
ENCODING 179
SWIDTH 625 0
DWIDTH 4 0
BBX 4 5 0 3
BITMAP
E0
30
60
30
E0
ENDCHAR
STARTCHAR acute
ENCODING 180
SWIDTH 1000 0
DWIDTH 8 0
BBX 3 2 3 6
BITMAP
60
C0
ENDCHAR
STARTCHAR mu
ENCODING 181
SWIDTH 1000 0
DWIDTH 8 0
BBX 8 6 0 -1
BITMAP
66
66
66
66
7B
C0
ENDCHAR
STARTCHAR paragraph
ENCODING 182
SWIDTH 1000 0
DWIDTH 8 0
BBX 8 7 0 0
BITMAP
7F
FA
7A
0A
0A
0A
0A
ENDCHAR
STARTCHAR periodcentered
ENCODING 183
SWIDTH 562 0
DWIDTH 4 0
BBX 2 2 1 2
BITMAP
C0
C0
ENDCHAR
STARTCHAR cedilla
ENCODING 184
SWIDTH 1000 0
DWIDTH 8 0
BBX 4 2 2 -1
BITMAP
30
F0
ENDCHAR
STARTCHAR uni00B9
ENCODING 185
SWIDTH 625 0
DWIDTH 4 0
BBX 4 5 0 3
BITMAP
30
F0
30
30
30
ENDCHAR
STARTCHAR ordmasculine
ENCODING 186
SWIDTH 625 0
DWIDTH 7 0
BBX 5 6 1 2
BITMAP
70
D8
D8
70
00
F8
ENDCHAR
STARTCHAR guillemotright
ENCODING 187
SWIDTH 875 0
DWIDTH 7 0
BBX 7 3 0 1
BITMAP
CC
66
CC
ENDCHAR
STARTCHAR onequarter
ENCODING 188
SWIDTH 1688 0
DWIDTH 11 0
BBX 9 9 1 -1
BITMAP
6000
E000
6000
6000
6380
0780
0D80
1F80
0180
ENDCHAR
STARTCHAR onehalf
ENCODING 189
SWIDTH 1688 0
DWIDTH 11 0
BBX 9 9 1 -1
BITMAP
6000
E000
6000
6000
6F00
1980
0300
0C00
1F80
ENDCHAR
STARTCHAR threequarters
ENCODING 190
SWIDTH 1688 0
DWIDTH 11 0
BBX 9 9 1 -1
BITMAP
7800
CC00
1800
CC00
7B80
0780
0D80
1F80
0180
ENDCHAR
STARTCHAR questiondown
ENCODING 191
SWIDTH 1062 0
DWIDTH 8 0
BBX 6 7 1 0
BITMAP
30
00
30
60
C0
CC
78
ENDCHAR
STARTCHAR Agrave
ENCODING 192
SWIDTH 1312 0
DWIDTH 10 0
BBX 10 7 0 0
BITMAP
0C00
1E00
3300
6180
7F80
C0C0
C0C0
ENDCHAR
STARTCHAR Aacute
ENCODING 193
SWIDTH 1312 0
DWIDTH 11 0
BBX 9 7 1 0
BITMAP
FF00
C000
C000
FF00
C180
C180
FF00
ENDCHAR
STARTCHAR Acircumflex
ENCODING 194
SWIDTH 1312 0
DWIDTH 11 0
BBX 9 7 1 0
BITMAP
FF00
C180
C180
FF00
C180
C180
FF00
ENDCHAR
STARTCHAR Atilde
ENCODING 195
SWIDTH 1188 0
DWIDTH 9 0
BBX 8 7 1 0
BITMAP
FF
C0
C0
C0
C0
C0
C0
ENDCHAR
STARTCHAR Adieresis
ENCODING 196
SWIDTH 1438 0
DWIDTH 10 0
BBX 10 8 0 -1
BITMAP
0F00
1F00
3300
3300
3300
3300
FFC0
C0C0
ENDCHAR
STARTCHAR Aring
ENCODING 197
SWIDTH 1250 0
DWIDTH 10 0
BBX 8 7 1 0
BITMAP
FF
C0
C0
FE
C0
C0
FF
ENDCHAR
STARTCHAR AE
ENCODING 198
SWIDTH 2000 0
DWIDTH 14 0
BBX 14 7 0 0
BITMAP
6318
3330
1B60
1FE0
3330
6318
C30C
ENDCHAR
STARTCHAR Ccedilla
ENCODING 199
SWIDTH 1188 0
DWIDTH 10 0
BBX 9 7 0 0
BITMAP
3E00
C180
0180
0E00
0180
C180
3E00
ENDCHAR
STARTCHAR Egrave
ENCODING 200
SWIDTH 1500 0
DWIDTH 12 0
BBX 10 7 1 0
BITMAP
C1C0
C3C0
C6C0
CCC0
D8C0
F0C0
E0C0
ENDCHAR
STARTCHAR Eacute
ENCODING 201
SWIDTH 1500 0
DWIDTH 12 0
BBX 10 7 1 0
BITMAP
DDC0
DBC0
C6C0
CCC0
D8C0
F0C0
E0C0
ENDCHAR
STARTCHAR Ecircumflex
ENCODING 202
SWIDTH 1250 0
DWIDTH 10 0
BBX 9 7 1 0
BITMAP
C300
C600
CC00
DC00
E600
C300
C180
ENDCHAR
STARTCHAR Edieresis
ENCODING 203
SWIDTH 1312 0
DWIDTH 11 0
BBX 10 7 0 0
BITMAP
0FC0
10C0
30C0
30C0
30C0
20C0
C0C0
ENDCHAR
STARTCHAR Igrave
ENCODING 204
SWIDTH 1625 0
DWIDTH 14 0
BBX 12 7 1 0
BITMAP
C030
E070
F0F0
D9B0
CF30
C630
C030
ENDCHAR
STARTCHAR Iacute
ENCODING 205
SWIDTH 1438 0
DWIDTH 12 0
BBX 10 7 1 0
BITMAP
C0C0
C0C0
C0C0
FFC0
C0C0
C0C0
C0C0
ENDCHAR
STARTCHAR Icircumflex
ENCODING 206
SWIDTH 1562 0
DWIDTH 12 0
BBX 10 7 1 0
BITMAP
1E00
6180
C0C0
C0C0
C0C0
6180
1E00
ENDCHAR
STARTCHAR Idieresis
ENCODING 207
SWIDTH 1438 0
DWIDTH 12 0
BBX 10 7 1 0
BITMAP
FFC0
C0C0
C0C0
C0C0
C0C0
C0C0
C0C0
ENDCHAR
STARTCHAR Eth
ENCODING 208
SWIDTH 1250 0
DWIDTH 10 0
BBX 9 7 1 0
BITMAP
FE00
C180
C180
FE00
C000
C000
C000
ENDCHAR
STARTCHAR Ntilde
ENCODING 209
SWIDTH 1438 0
DWIDTH 11 0
BBX 9 7 1 0
BITMAP
1E00
6180
C000
C000
C000
6180
1E00
ENDCHAR
STARTCHAR Ograve
ENCODING 210
SWIDTH 1125 0
DWIDTH 8 0
BBX 8 7 0 0
BITMAP
FF
18
18
18
18
18
18
ENDCHAR
STARTCHAR Oacute
ENCODING 211
SWIDTH 1125 0
DWIDTH 10 0
BBX 10 7 0 0
BITMAP
C0C0
6180
3300
1E00
0C00
1800
7000
ENDCHAR
STARTCHAR Ocircumflex
ENCODING 212
SWIDTH 1562 0
DWIDTH 12 0
BBX 12 7 0 0
BITMAP
3FC0
C630
C630
C630
3FC0
0600
0600
ENDCHAR
STARTCHAR Otilde
ENCODING 213
SWIDTH 1188 0
DWIDTH 10 0
BBX 8 7 1 0
BITMAP
C3
66
3C
18
3C
66
C3
ENDCHAR
STARTCHAR Odieresis
ENCODING 214
SWIDTH 1562 0
DWIDTH 11 0
BBX 10 8 1 -1
BITMAP
C300
C300
C300
C300
C300
C300
FFC0
00C0
ENDCHAR
STARTCHAR multiply
ENCODING 215
SWIDTH 1188 0
DWIDTH 11 0
BBX 9 7 1 0
BITMAP
C180
C180
C180
3F80
0180
0180
0180
ENDCHAR
STARTCHAR Oslash
ENCODING 216
SWIDTH 1812 0
DWIDTH 16 0
BBX 14 7 1 0
BITMAP
C30C
C30C
C30C
C30C
C30C
C30C
FFFC
ENDCHAR
STARTCHAR Ugrave
ENCODING 217
SWIDTH 2000 0
DWIDTH 17 0
BBX 16 8 1 -1
BITMAP
C30C
C30C
C30C
C30C
C30C
C30C
FFFF
0003
ENDCHAR
STARTCHAR Uacute
ENCODING 218
SWIDTH 1500 0
DWIDTH 12 0
BBX 11 7 1 0
BITMAP
F000
3000
3000
3F80
3060
3060
3F80
ENDCHAR
STARTCHAR Ucircumflex
ENCODING 219
SWIDTH 1562 0
DWIDTH 14 0
BBX 12 7 1 0
BITMAP
C030
C030
C030
FE30
C1B0
C1B0
FE30
ENDCHAR
STARTCHAR Udieresis
ENCODING 220
SWIDTH 1375 0
DWIDTH 10 0
BBX 9 7 1 0
BITMAP
C000
C000
C000
FE00
C180
C180
FE00
ENDCHAR
STARTCHAR Yacute
ENCODING 221
SWIDTH 1500 0
DWIDTH 10 0
BBX 9 7 0 0
BITMAP
3E00
C180
0180
0F80
0180
C180
3E00
ENDCHAR
STARTCHAR Thorn
ENCODING 222
SWIDTH 1812 0
DWIDTH 15 0
BBX 13 7 1 0
BITMAP
C3C0
CC30
D818
F818
D818
CC30
C3C0
ENDCHAR
STARTCHAR germandbls
ENCODING 223
SWIDTH 1312 0
DWIDTH 11 0
BBX 10 7 0 0
BITMAP
1FC0
60C0
60C0
1FC0
60C0
60C0
C0C0
ENDCHAR
STARTCHAR agrave
ENCODING 224
SWIDTH 1062 0
DWIDTH 9 0
BBX 8 5 1 0
BITMAP
7C
06
7E
C6
7B
ENDCHAR
STARTCHAR aacute
ENCODING 225
SWIDTH 1125 0
DWIDTH 8 0
BBX 7 5 1 0
BITMAP
F8
C0
FC
C6
FC
ENDCHAR
STARTCHAR acircumflex
ENCODING 226
SWIDTH 1125 0
DWIDTH 8 0
BBX 7 5 1 0
BITMAP
F8
C4
FC
C6
FC
ENDCHAR
STARTCHAR atilde
ENCODING 227
SWIDTH 938 0
DWIDTH 6 0
BBX 5 5 1 0
BITMAP
F8
C0
C0
C0
C0
ENDCHAR
STARTCHAR adieresis
ENCODING 228
SWIDTH 1375 0
DWIDTH 9 0
BBX 9 6 0 -1
BITMAP
0E00
1600
3600
3600
FF80
C180
ENDCHAR
STARTCHAR aring
ENCODING 229
SWIDTH 1125 0
DWIDTH 9 0
BBX 7 5 1 0
BITMAP
7C
C6
FE
C0
7C
ENDCHAR
STARTCHAR ae
ENCODING 230
SWIDTH 1688 0
DWIDTH 10 0
BBX 10 5 0 0
BITMAP
CCC0
6D80
3F00
6D80
CCC0
ENDCHAR
STARTCHAR ccedilla
ENCODING 231
SWIDTH 1062 0
DWIDTH 9 0
BBX 7 5 1 0
BITMAP
7C
C6
1C
C6
7C
ENDCHAR
STARTCHAR egrave
ENCODING 232
SWIDTH 1125 0
DWIDTH 10 0
BBX 8 5 1 0
BITMAP
C7
CF
DB
F3
E3
ENDCHAR
STARTCHAR eacute
ENCODING 233
SWIDTH 1125 0
DWIDTH 10 0
BBX 8 7 1 0
BITMAP
18
10
C7
CF
DB
F3
E3
ENDCHAR
STARTCHAR ecircumflex
ENCODING 234
SWIDTH 1062 0
DWIDTH 8 0
BBX 7 5 1 0
BITMAP
CC
D8
F8
CC
C6
ENDCHAR
STARTCHAR edieresis
ENCODING 235
SWIDTH 1062 0
DWIDTH 9 0
BBX 8 5 0 0
BITMAP
0F
13
33
33
E3
ENDCHAR
STARTCHAR igrave
ENCODING 236
SWIDTH 1500 0
DWIDTH 11 0
BBX 9 5 1 0
BITMAP
E380
F780
DD80
C980
C180
ENDCHAR
STARTCHAR iacute
ENCODING 237
SWIDTH 1125 0
DWIDTH 9 0
BBX 7 5 1 0
BITMAP
C6
C6
FE
C6
C6
ENDCHAR
STARTCHAR icircumflex
ENCODING 238
SWIDTH 1125 0
DWIDTH 9 0
BBX 7 5 1 0
BITMAP
7C
C6
C6
C6
7C
ENDCHAR
STARTCHAR idieresis
ENCODING 239
SWIDTH 1125 0
DWIDTH 9 0
BBX 7 5 1 0
BITMAP
FE
C6
C6
C6
C6
ENDCHAR
STARTCHAR eth
ENCODING 240
SWIDTH 1188 0
DWIDTH 9 0
BBX 7 6 1 -1
BITMAP
FC
C6
C6
C6
FC
C0
ENDCHAR
STARTCHAR ntilde
ENCODING 241
SWIDTH 1062 0
DWIDTH 8 0
BBX 7 5 1 0
BITMAP
7C
C6
C0
C6
7C
ENDCHAR
STARTCHAR ograve
ENCODING 242
SWIDTH 1062 0
DWIDTH 9 0
BBX 8 5 1 0
BITMAP
FF
18
18
18
18
ENDCHAR
STARTCHAR oacute
ENCODING 243
SWIDTH 938 0
DWIDTH 8 0
BBX 8 6 0 -1
BITMAP
C3
C3
66
3C
18
F0
ENDCHAR
STARTCHAR ocircumflex
ENCODING 244
SWIDTH 1188 0
DWIDTH 9 0
BBX 8 7 1 -1
BITMAP
18
7E
DB
DB
DB
7E
18
ENDCHAR
STARTCHAR otilde
ENCODING 245
SWIDTH 938 0
DWIDTH 8 0
BBX 6 5 1 0
BITMAP
CC
78
30
78
CC
ENDCHAR
STARTCHAR odieresis
ENCODING 246
SWIDTH 1188 0
DWIDTH 9 0
BBX 8 6 1 -1
BITMAP
C6
C6
C6
C6
FF
03
ENDCHAR
STARTCHAR divide
ENCODING 247
SWIDTH 1062 0
DWIDTH 9 0
BBX 7 5 1 0
BITMAP
C6
C6
7E
06
06
ENDCHAR
STARTCHAR oslash
ENCODING 248
SWIDTH 1438 0
DWIDTH 10 0
BBX 8 5 1 0
BITMAP
DB
DB
DB
DB
FF
ENDCHAR
STARTCHAR ugrave
ENCODING 249
SWIDTH 1625 0
DWIDTH 10 0
BBX 9 6 1 -1
BITMAP
DB00
DB00
DB00
DB00
FF80
0180
ENDCHAR
STARTCHAR uacute
ENCODING 250
SWIDTH 1250 0
DWIDTH 9 0
BBX 8 5 0 0
BITMAP
E0
60
7E
63
7E
ENDCHAR
STARTCHAR ucircumflex
ENCODING 251
SWIDTH 1312 0
DWIDTH 11 0
BBX 10 5 1 0
BITMAP
C0C0
C0C0
FCC0
C6C0
FCC0
ENDCHAR
STARTCHAR udieresis
ENCODING 252
SWIDTH 1125 0
DWIDTH 9 0
BBX 7 5 1 0
BITMAP
C0
C0
FC
C6
FC
ENDCHAR
STARTCHAR yacute
ENCODING 253
SWIDTH 1062 0
DWIDTH 9 0
BBX 7 5 1 0
BITMAP
7C
C6
1E
C6
7C
ENDCHAR
STARTCHAR thorn
ENCODING 254
SWIDTH 1438 0
DWIDTH 10 0
BBX 8 5 1 0
BITMAP
CE
DB
FB
DB
CE
ENDCHAR
STARTCHAR ydieresis
ENCODING 255
SWIDTH 1062 0
DWIDTH 9 0
BBX 7 5 1 0
BITMAP
7E
C6
7E
66
C6
ENDCHAR
ENDFONT
